<svg xmlns="http://www.w3.org/2000/svg" width="684.287" height="426.158" viewBox="0 0 684.287 426.158">
  <g id="Isolation_Mode" data-name="Isolation Mode" transform="translate(-0.432 -39.745)">
    <path id="Path_462" data-name="Path 462" d="M290.453,112.1s-5.905,5.905,5.066,50.685,35.907,78.98,35.907,78.98a77.832,77.832,0,0,0,22.39-73.494C344.468,121.756,290.453,112.1,290.453,112.1Z" transform="translate(115.187 28.895)" fill="#22272e"/>
    <path id="Path_463" data-name="Path 463" d="M339.273,232.578s-8.4,2.533-28.295,23.229S262,287.055,227.352,302.686s-51.538-57.024-42.666-93.757c8.4-36.747,46.459-62.089,46.459-62.089L305,156.971s24.5-29.149,34.214-10.145C348.564,165.843,347.725,208.5,339.273,232.578Z" transform="translate(72.651 40.194)" fill="#f4c2c9"/>
    <path id="Path_464" data-name="Path 464" d="M348.575,402.267,96.845,460.13a20.375,20.375,0,0,1-24.5-15.253L.975,135.76a20.361,20.361,0,0,1,15.2-24.5L267.9,53.394a20.361,20.361,0,0,1,24.489,15.211l70.961,309.1a19.815,19.815,0,0,1-14.777,24.559Z" transform="translate(0 5.235)" fill="#22272e"/>
    <path id="Path_465" data-name="Path 465" d="M223.676,122.236,59.8,159.837a9.8,9.8,0,0,1-11.825-7.612h0a9.8,9.8,0,0,1,7.6-11.824L219.45,102.813a9.8,9.8,0,0,1,11.825,7.6h0A10.677,10.677,0,0,1,223.676,122.236Z" transform="translate(18.884 25.084)" fill="#ffe779"/>
    <line id="Line_1" data-name="Line 1" y1="42.232" x2="183.301" transform="translate(78.261 186.18)" fill="none" stroke="#63737a" stroke-linecap="round" stroke-linejoin="round" stroke-width="8"/>
    <line id="Line_2" data-name="Line 2" y1="42.246" x2="183.301" transform="translate(85.44 217.008)" fill="none" stroke="#63737a" stroke-linecap="round" stroke-linejoin="round" stroke-width="8"/>
    <path id="Path_466" data-name="Path 466" d="M217.517,350.507,113.792,373.681a15.483,15.483,0,0,1-11.541-1.926,14.525,14.525,0,0,1-6.609-9.339L71.649,262.271a14.109,14.109,0,0,1,2-11.154,15.056,15.056,0,0,1,9.683-6.377l103.725-23.153a15.482,15.482,0,0,1,11.541,1.926,14.525,14.525,0,0,1,6.609,9.339L229.2,333.038a15.872,15.872,0,0,1-11.685,17.469Z" transform="translate(14.459 23.157)" fill="#ffe779"/>
    <line id="Line_3" data-name="Line 3" y1="16.051" x2="68.834" transform="translate(240.308 254.966)" fill="none" stroke="#63737a" stroke-linecap="round" stroke-linejoin="round" stroke-width="8"/>
    <line id="Line_4" data-name="Line 4" y1="15.631" x2="69.268" transform="translate(247.907 288.746)" fill="none" stroke="#63737a" stroke-linecap="round" stroke-linejoin="round" stroke-width="8"/>
    <line id="Line_5" data-name="Line 5" y1="9.712" x2="41.813" transform="translate(255.505 328.46)" fill="none" stroke="#63737a" stroke-linecap="round" stroke-linejoin="round" stroke-width="8"/>
    <path id="Path_467" data-name="Path 467" d="M164.054,79.139,74.509,99.905A8.928,8.928,0,0,1,63.958,89.27l.84-4.2a9.138,9.138,0,0,1,6.759-6.759L157.3,58.442a8.774,8.774,0,0,1,8.872,2.953l2.533,3.386C172.926,70.267,170.449,77.879,164.054,79.139Z" transform="translate(25.288 7.366)" fill="#6dafa7"/>
    <path id="Path_468" data-name="Path 468" d="M311.933,139.015s-10.565,5.485-30.786,0S257.5,128.45,236.368,122.964s-50.265.42-55.33,9.292,8.4,14.357,26.588,16.47,26.588,36.747,55.75,49.831C311.933,220.108,355.005,154.212,311.933,139.015Z" transform="translate(71.696 32.388)" fill="#f4c2c9"/>
    <path id="Path_469" data-name="Path 469" d="M181.007,129c-5.066,8.872,8.4,14.357,26.588,16.47s26.588,36.747,55.75,49.831a46.361,46.361,0,0,0,28.715,3.386" transform="translate(71.684 35.644)" fill="none" stroke="#e26e85" stroke-linecap="round" stroke-linejoin="round" stroke-width="5.43"/>
    <path id="Path_470" data-name="Path 470" d="M306.371,119.94s-22.39,14.371-32.1,19.437c0,0,19,18.583,26.588,51.944s1.693,49.425,1.693,49.425,24.922-2.547,37.167-11.4c0,0,11.825-19.437,2.113-57.443S306.371,119.94,306.371,119.94Z" transform="translate(109.358 32.026)" fill="#fff"/>
    <path id="Path_471" data-name="Path 471" d="M565.323,100.442a85.095,85.095,0,0,0-130.5-45.185c-27.875,19.423-57.024,38.426-80.253,51.1L290,141.415s36.747,36.313,42.246,76.447-1.273,53.175-1.273,53.175,100.949-24.923,190.06-68.428c37.587-19,56.59-62.089,44.345-102.153Z" transform="translate(115.64 0)" fill="#6dafa7"/>
    <path id="Path_472" data-name="Path 472" d="M316.091,184.442a5.066,5.066,0,1,0-5.066,5.08,4.884,4.884,0,0,0,5.066-5.08Z" transform="translate(122.014 55.768)" fill="#22272e"/>
    <text id="Your_don_t_have_any_rules_setup_yet_" data-name="You don`t 
have any rules 
setup yet!" transform="translate(160.045 303.347) rotate(-14)" font-size="17" font-family="PermanentMarker-Regular, Permanent Marker"><tspan x="-50" y="0">You don`t </tspan><tspan x="-63" y="25">have any rules </tspan><tspan x="-39" y="50">setup yet!</tspan></text>
  </g>
</svg>
